# xmcd
#
# Track frame offsets:
# 150
# 9145
# 21302
# 39886
# 49643
# 90298
# 99356
# 111314
# 123877
# 142027
# 151032
# 168321
# 183051
# 213446
# 233490
# 252871
# 269300
# 286812
# 305692
# 326641
#
# Disc length: 4586 seconds
#
# Revision: 0
# Processed by: cddbd v1.5.1PL2 Copyright (c) Steve Scherf et al.
# Submitted via: Audion 3.0.2 (http://www.panic.com/audion/)
#
DISCID=f511e814
DTITLE=mix - mix
DYEAR=1900
DGENRE=
TTITLE0=Powerhouse freestyle- Beanie Siegal
TTITLE1=I'm Back- Sheek Louch
TTITLE2=Whoa- Lil Kim
TTITLE3=Fake Hustlers- Papoose
TTITLE4=Rolling 25 Deep
TTITLE5=Window Shopper Freestyle- Stack Bundles
TTITLE6=Concieted Freestyle- Sheek Louch and Jae Hood
TTITLE7=Demo Shopper- Jae Millz
TTITLE8=Dope Man- Jay-Z
TTITLE9=Raps Makeover- Stack Bundles
TTITLE10=1-900-Hustler- Jay-Z Feat.Memphis Bleek and Freeway
TTITLE11=Lay Down- Jr Writer
TTITLE12=Ruffryders Allstar Freestyle
TTITLE13=Are You That Somebody
TTITLE14=We Belong Together Rmx- Mariah Carey Feat. Kiss and Styles P
TTITLE15=Rock Wit You
TTITLE16=Must Be Nice- Lyfe
TTITLE17=Cry- Lyfe
TTITLE18=1 Wish Rmx- Ray-J Feat. Fabolous
TTITLE19=Don't Forget About Us- Mariah Carey
EXTD=
EXTT0=
EXTT1=
EXTT2=
EXTT3=
EXTT4=
EXTT5=
EXTT6=
EXTT7=
EXTT8=
EXTT9=
EXTT10=
EXTT11=
EXTT12=
EXTT13=
EXTT14=
EXTT15=
EXTT16=
EXTT17=
EXTT18=
EXTT19=
PLAYORDER=
